/* XPM */
static char *icono_xpm[] = {
/* width height num_colors chars_per_pixel */
"16 16 65 1",
/* colors */
"  c #ffffff",
". c #bdbdbd",
"X c #4e4e4e",
"o c #292929",
"O c #444444",
"+ c #a7a7a7",
"@ c #c2c2c2",
"# c #272727",
"$ c #262626",
"% c #a2a2a2",
"& c #5a5a5a",
"* c #333333",
"= c #8d8d8d",
"- c #404040",
"; c #353535",
": c #a5a5a5",
"> c #f7f7f7",
", c #3a3a3a",
"< c #7b7b7b",
"1 c #a0a0a0",
"2 c #5c5c5c",
"3 c #e8e8e8",
"4 c #323232",
"5 c #8c8c8c",
"6 c #414141",
"7 c #373737",
"8 c #757575",
"9 c #d3d3d3",
"0 c #f9f9f9",
"q c #d5d5d5",
"w c #bebebe",
"e c #2b2b2b",
"r c #434343",
"t c #a9a9a9",
"y c #808080",
"u c #3c3c3c",
"i c #e7e7e7",
"p c #fcfcfc",
"a c #d0d0d0",
"s c #686868",
"d c #c0c0c0",
"f c #5e5e5e",
"g c #535353",
"h c #9e9e9e",
"j c #f0f0f0",
"k c #cecece",
"l c #424242",
"z c #d1d1d1",
"x c #575757",
"c c #7e7e7e",
"v c #3e3e3e",
"b c #6d6d6d",
"n c #8b8b8b",
"m c #707070",
"M c #303030",
"N c #313131",
"B c #555555",
"V c #747474",
"C c #9b9b9b",
"Z c #f2f2f2",
"A c #e6e6e6",
"S c #eeeeee",
"D c #afafaf",
"F c #797979",
"G c #e4e4e4",
/* pixels */
"  .XoO+         ",
" @#$$$$%        ",
" &$*=-$;:>      ",
" ,$< 1$$$23     ",
" &$456$78$,9    ",
" @#$$$$%07$*q   ",
"  wXert  y$$ui  ",
"    p    a$$$s  ",
"   dfghpjkl$$$z ",
"  ko$$$xe$$$$$c ",
"  8$$$$$$$$$$$v ",
"  b$$$$$$$$$$$n ",
"  m$$$#M$$$NB+p ",
"  V$$$C ZASp    ",
"  8$;D          ",
"  FNG           "
};
